<!DOCTYPE svg PUBLIC "-//W3C//DTD SVG 1.1//EN" "http://www.w3.org/Graphics/SVG/1.1/DTD/svg11.dtd">
<!-- Uploaded to: SVG Repo, www.svgrepo.com, Transformed by: SVG Repo Mixer Tools -->
<svg width="800px" height="800px" viewBox="0 0 1024 1024" fill="#377389" class="icon" version="1.1" xmlns="http://www.w3.org/2000/svg" stroke="#377389">
<g id="SVGRepo_bgCarrier" stroke-width="0"/>
<g id="SVGRepo_tracerCarrier" stroke-linecap="round" stroke-linejoin="round"/>
<g id="SVGRepo_iconCarrier">
<path d="M384.75581 648.54146c-4.437333-3.445841-39.635302-30.069841-137.289143-36.547047-5.371937-0.446984-10.784508-4.25854-15.555048-7.452445-6.070857-4.039111-12.377397-8.281397-16.97727-13.750857-7.476825-8.923429-15.920762-16.432762-23.015619-26.339555-47.477841-66.186159-94.004825-79.473778-100.961524-82.098794-9.264762-4.469841-44.755302 1.032127-27.704889 24.697905 1.080889 0.178794 54.288254 74.922667 57.742223 80.896 6.111492 10.548825 13.027556 14.864254 19.521016 22.267936 5.932698 6.761651 12.499302 12.978794 18.562031 19.626667 0 0-34.027683-20.146794-42.179047-28.972699-3.632762-3.957841-5.380063-9.622349-8.27327-14.319746a351.963429 351.963429 0 0 0-10.540699-15.904508 543.857778 543.857778 0 0 0-13.954031-19.301587c-6.160254-8.021333-12.55619-15.872-18.903365-23.755174-3.949714-4.908698-8.411429-9.64673-11.67035-14.774858-16.091429-25.421206 2.283683-40.626794 19.772953-42.544761-0.845206-2.925714-8.890921-79.798857-10.296889-92.704508-4.01473-37.059048-7.980698-64.512-29.224635-71.980699-5.477587-1.934222-9.346032-1.284063-13.425778 3.023238-4.827429 5.071238-7.704381 31.98781-9.094095 49.005715 0 0-9.289143 91.314794-7.054222 133.924571 1.194667 22.853079 72.183873 180.06146 92.582603 204.353016 20.382476 24.283429 179.923302 116.248381 179.923301 116.248381 5.331302 4.437333 34.872889 27.184762 34.872889 57.010793v64.747683l171.999492 0.203175 0.146286-59.416381c0.398222-10.979556 2.267429-21.902222 3.584-32.841143 3.74654-12.491175 0.747683-36.100063-0.999619-45.267302-19.976127-89.153016-93.549714-141.815873-101.587301-148.033016zM1012.703492 357.603556c-1.397841-17.026032-4.266667-43.934476-9.094095-49.005715-4.079746-4.307302-7.956317-4.95746-13.433905-3.023238-21.227683 7.476825-25.209905 34.929778-29.216508 71.980699-1.414095 12.905651-9.451683 89.778794-10.305016 92.704508 17.48927 1.917968 35.872508 17.123556 19.772953 42.544761-3.250794 5.136254-7.704381 9.866159-11.662223 14.774858-6.347175 7.883175-12.751238 15.733841-18.911492 23.755174a533.536508 533.536508 0 0 0-13.945904 19.301587 345.185524 345.185524 0 0 0-10.540699 15.904508c-2.885079 4.697397-4.632381 10.353778-8.281397 14.319746-8.159492 8.834032-42.179048 28.972698-42.179047 28.972699 6.06273-6.647873 12.63746-12.865016 18.570158-19.626667 6.49346-7.403683 13.401397-11.719111 19.512889-22.267936 3.470222-5.973333 56.677587-80.717206 57.75035-80.896 17.050413-23.665778-18.448254-29.167746-27.713016-24.697905-6.948571 2.616889-53.475556 15.912635-100.953397 82.098794-7.094857 9.906794-15.546921 17.424254-23.015619 26.339555-4.599873 5.477587-10.91454 9.711746-16.985397 13.750857-4.77054 3.193905-10.183111 7.00546-15.555048 7.452445-97.653841 6.477206-132.843683 33.101206-137.289142 36.547047-8.037587 6.22527-81.603048 58.88-101.587302 148.024889-1.755429 9.167238-4.746159 32.776127-0.999619 45.267302 1.316571 10.938921 3.193905 21.861587 3.584 32.841143l0.146286 59.416381 171.999492-0.203175v-64.747683c0-29.826032 29.541587-52.57346 34.872889-57.010793 0 0 159.532698-91.956825 179.923301-116.248381s91.371683-181.499937 92.574476-204.353016c2.251175-42.601651-7.037968-133.916444-7.037968-133.916444zM615.659683 560.72127c81.594921-76.751238 182.889651-172.056381 196.803047-256.869587 9.768635-59.977143 0.219429-109.413587-28.379428-146.944-28.867048-37.888-72.78527-59.513905-134.282159-66.121143a165.172825 165.172825 0 0 0-16.684699-0.869588c-43.495619 0-87.413841 16.205206-121.116444 43.568762-33.694476-27.363556-77.620825-43.568762-121.108317-43.568762-5.36381 0-10.752 0.276317-16.684699 0.869588-61.496889 6.607238-105.423238 28.233143-134.282159 66.121143-28.606984 37.530413-38.148063 86.966857-28.379428 146.944 13.913397 84.821333 115.208127 180.118349 196.803047 256.869587 0 0 40.699937 40.846222 52.931048 51.330032 9.191619 7.891302 29.135238 23.79581 50.728635 23.795809 21.601524 0 41.545143-15.904508 50.736762-23.795809 12.214857-10.48381 52.914794-51.330032 52.914794-51.330032z m-207.262477-369.615238c-51.98019 0-94.281143 37.61981-94.281143 83.862349a25.396825 25.396825 0 1 1-50.809904 0c0-74.264381 65.080889-134.672254 145.091047-134.672254a25.396825 25.396825 0 1 1 0 50.809905z"/>
</g>
</svg>